<?xml version="1.0" encoding="UTF-8"?>
<svg id="Ebene_1" xmlns="http://www.w3.org/2000/svg" version="1.1" viewBox="0 0 935.43 935.43">
  <!-- Generator: Adobe Illustrator 29.8.2, SVG Export Plug-In . SVG Version: 2.1.1 Build 3)  -->
  <defs>
    <style>
      .st0 {
        fill: none;
        stroke-width: 29px;
      }

      .st0, .st1 {
        stroke: #ded5eb;
        stroke-miterlimit: 10;
      }

      .st2 {
        fill: #8170b1;
      }

      .st3 {
        fill: #42277a;
      }

      .st1, .st4 {
        fill: #ded5eb;
      }

      .st4 {
        font-family: CabinSketch-Bold, 'Cabin Sketch';
        font-size: 114px;
        font-weight: 700;
      }
    </style>
  </defs>
  <path class="st3" d="M823.32,692.13l-332.33,189.39c-13.97,7.96-31.11,7.98-45.1.05l-332.75-188.7c-14.27-8.09-23.1-23.23-23.12-39.64l-.42-376.87c-.02-16.41,8.78-31.57,23.03-39.69L444.96,47.28c13.97-7.96,31.11-7.98,45.1-.05l332.75,188.7c14.27,8.09,23.1,23.23,23.12,39.64l.42,376.87c.02,16.41-8.78,31.57-23.03,39.69Z"/>
  <path class="st0" d="M833.29,701.06l-342.28,195.07c-13.97,7.96-31.11,7.98-45.1.05l-342.72-194.35c-14.27-8.09-23.1-23.23-23.12-39.64l-.43-388.2c-.02-16.41,8.78-31.57,23.03-39.69L444.95,39.23c13.97-7.96,31.11-7.98,45.1-.05l342.72,194.35c14.27,8.09,23.1,23.23,23.12,39.64l.43,388.2c.02,16.41-8.78,31.57-23.03,39.69Z"/>
  <path class="st1" d="M500.19,151.47c.96.53,1.92,1.07,2.91,1.62,7.8,4.36,15.51,8.86,23.19,13.43,4.58,2.71,9.18,5.39,13.77,8.07,1.01.59,2.02,1.18,3.06,1.78,6.47,3.77,12.95,7.51,19.44,11.25,9.58,5.51,19.13,11.08,28.59,16.79,13.87,8.36,27.9,16.47,41.97,24.49,7.73,4.4,15.44,8.84,23.12,13.31.97.56,1.94,1.13,2.94,1.71q30.65,17.86,35.43,34.98c.28,2.95.28,5.89.27,8.85,0,.88.01,1.76.02,2.67.01,2.94.02,5.89.02,8.83,0,2.11.02,4.23.03,6.34.02,5.74.03,11.48.04,17.21,0,3.59,0,7.18.02,10.77.02,12.54.04,25.08.04,37.62,0,11.66.03,23.32.08,34.98.03,10.03.05,20.06.05,30.09,0,5.98,0,11.96.04,17.95.03,5.64.03,11.27.01,16.91,0,2.06,0,4.11.02,6.17.12,16.52-1.24,33.08-13.49,45.51-5.91,5.42-12.2,9.36-19.2,13.23-1.74.98-3.47,1.96-5.21,2.95-1.77,1-3.54,2-5.31,2.99-5.13,2.9-10.21,5.89-15.3,8.87-9.82,5.74-19.68,11.4-29.56,17.03-7.91,4.51-15.81,9.04-23.69,13.6q-1.6.92-3.23,1.87c-3.22,1.86-6.43,3.71-9.64,5.57-4.29,2.48-8.58,4.96-12.88,7.44-1.06.61-2.13,1.23-3.23,1.86-5.65,3.26-11.31,6.51-16.98,9.74-.59.34-1.18.67-1.79,1.02-2.38,1.36-4.76,2.71-7.14,4.07-6.13,3.49-12.24,7-18.28,10.63-.99.59-1.97,1.18-2.99,1.79-1.81,1.09-3.63,2.19-5.43,3.29-9.19,5.53-17.98,9.34-28.78,9.47-.75.03-1.51.06-2.28.09-11.41.13-20.4-5.36-29.81-11.28-3.08-1.93-6.17-3.83-9.27-5.74-.62-.38-1.23-.76-1.86-1.15-5.24-3.23-10.55-6.33-15.9-9.36q-1.24-.7-2.51-1.42c-1.71-.97-3.42-1.94-5.13-2.9-5.2-2.95-10.37-5.94-15.55-8.93-1.1-.63-2.2-1.27-3.33-1.92-13.66-7.89-27.29-15.84-40.89-23.83-2.45-1.44-4.89-2.87-7.34-4.31-.61-.36-1.22-.72-1.85-1.09-8.57-5.03-17.16-10.02-25.77-14.97-3.19-1.84-6.38-3.68-9.57-5.52-2.42-1.4-4.84-2.79-7.26-4.18-3.31-1.91-6.62-3.82-9.92-5.74-1.27-.73-2.54-1.47-3.81-2.2-14.99-8.61-23.51-16.81-28.43-33.86-1.01-4.94-1.15-9.67-1.15-14.69,0-.86,0-1.72-.01-2.61-.01-2.88-.01-5.77-.02-8.65,0-2.07-.01-4.14-.02-6.21-.02-6.79-.03-13.58-.04-20.38,0-2.34,0-4.68-.01-7.03-.02-11-.03-22.01-.04-33.01,0-12.69-.04-25.37-.08-38.06-.03-9.82-.04-19.63-.05-29.45,0-5.86-.01-11.72-.04-17.57-.02-5.51-.03-11.03-.02-16.54,0-2.02,0-4.03-.02-6.05-.09-14.24.48-26.65,10.49-37.75.47-.54.95-1.08,1.43-1.64,5.04-5.38,10.85-8.87,17.19-12.55,1.11-.65,2.21-1.3,3.35-1.98,8.52-5.01,17.11-9.93,25.71-14.8,5.84-3.32,11.64-6.7,17.44-10.09,7.01-4.1,14.03-8.19,21.06-12.25,9.28-5.36,18.53-10.79,27.78-16.22,8.63-5.06,17.27-10.11,25.92-15.15,6.14-3.58,12.27-7.17,18.4-10.77,6.57-3.86,13.14-7.71,19.72-11.55.89-.52,1.78-1.04,2.69-1.58,20.42-11.94,36.64-13.86,57.87-1.86ZM445.51,166.28c-2.13,1.26-4.26,2.52-6.38,3.77q-1.62.96-3.27,1.94c-5.06,3-10.14,5.95-15.23,8.91-2,1.17-4.01,2.34-6.01,3.5-.99.58-1.98,1.16-3,1.75-2.97,1.74-5.95,3.47-8.92,5.21-11.43,6.68-22.89,13.32-34.36,19.93-8.24,4.75-16.46,9.53-24.67,14.33-7.37,4.31-14.77,8.57-22.17,12.83-8.33,4.8-16.65,9.62-24.94,14.5q-1.31.77-2.65,1.55-18.41,10.67-29.29,28.39c-.1,2.8-.15,5.57-.15,8.37,0,.86,0,1.73-.01,2.62-.01,2.91-.01,5.82-.02,8.73,0,2.08-.01,4.16-.02,6.24-.02,6.85-.03,13.69-.04,20.54,0,2.36,0,4.71-.01,7.07-.02,11.08-.03,22.15-.04,33.23,0,12.78-.04,25.56-.08,38.34-.03,9.88-.04,19.76-.05,29.64,0,5.9-.01,11.8-.04,17.7-.02,5.56-.03,11.11-.02,16.67,0,2.03,0,4.07-.02,6.1-.09,13.56.05,25.29,10.02,35.63,4.83,4.15,10.31,7.17,15.84,10.25,1.29.73,2.58,1.47,3.86,2.21,2.63,1.51,5.27,3,7.91,4.49,5.79,3.26,11.54,6.6,17.29,9.93,1.07.61,2.14,1.23,3.24,1.86,7.75,4.46,15.45,8.98,23.14,13.54,14.1,8.35,28.25,16.62,42.5,24.72,7.95,4.52,15.83,9.14,23.69,13.81,1.12.66,2.24,1.33,3.39,2.01.57.34,1.13.67,1.72,1.02.57.34,1.14.68,1.73,1.03.58.34,1.15.69,1.75,1.04,6.35,3.77,12.71,7.54,19.08,11.28,1.24.73,2.49,1.47,3.73,2.2q13.58,8.89,28.98,12.35c1.16.01,2.33.03,3.52.04,9.81-1.01,18.96-7.07,27.23-12.04,2.1-1.25,4.21-2.49,6.31-3.73,1.08-.64,2.15-1.28,3.27-1.94,5.47-3.23,10.98-6.4,16.49-9.58,1.09-.63,2.18-1.26,3.3-1.91,7.55-4.35,15.12-8.67,22.69-12.99,6.48-3.7,12.93-7.46,19.38-11.23,8.85-5.18,17.72-10.29,26.62-15.38.6-.34,1.19-.68,1.8-1.03,5.81-3.31,11.62-6.62,17.43-9.93,9.68-5.5,19.32-11.06,28.94-16.66,1.28-.74,2.56-1.49,3.84-2.23,13.27-7.68,24.1-14.03,28.97-29.26,1.74-7.94,1.38-16.07,1.35-24.16,0-2.04.01-4.09.02-6.13.02-5.52.01-11.04,0-16.57-.01-5.79,0-11.59,0-17.38,0-9.73,0-19.45-.02-29.18-.02-11.23-.01-22.46,0-33.69.02-9.66.02-19.32.01-28.98,0-5.76,0-11.52,0-17.28.01-5.42,0-10.83-.02-16.25,0-1.98,0-3.96,0-5.95.05-12.97-.2-23.49-9.57-33.42-6.7-6.11-15.19-10.32-23.02-14.78-2.32-1.33-4.65-2.67-6.97-4q-.88-.5-1.77-1.02c-5.75-3.3-11.47-6.64-17.19-9.98-8.46-4.95-16.94-9.86-25.44-14.75-8.31-4.79-16.6-9.6-24.86-14.48-11.22-6.62-22.46-13.19-33.7-19.77-1.09-.64-2.19-1.28-3.32-1.94-6.89-4.03-13.78-8.05-20.68-12.06-.94-.55-1.88-1.09-2.84-1.65q-19.47-12.69-41.28-18.66c-.87-.04-1.74-.07-2.63-.11-8.95,1.18-16.75,6.24-24.37,10.8Z"/>
  <path class="st2" d="M575.75,261.8c3.73.04,7.46.05,11.19.07,7.23.04,14.46.1,21.69.18v14.35c-1.85.02-3.7.03-5.6.05-6.21.06-12.42.14-18.63.23-3.75.05-7.51.1-11.26.13-20.37.18-40.68.47-60.51,6.76-1.05.31-2.09.62-3.17.94-21.57,7.14-35.12,25.07-45.98,47.52-3.01,6.78-5.4,13.82-7.77,20.94-.84,2.52-1.69,5.03-2.54,7.54-2.58,7.64-4.97,15.24-6.85,23.18-1.28,5.03-3.02,9.85-4.7,14.7-.67,2.01-1.34,4.03-2.01,6.04q-14.58,43.55-26.99,62.14c-.41.62-.81,1.24-1.23,1.88-7.7,11.47-18.57,17.85-29.77,23.24-.75.36-1.5.73-2.27,1.1-29.31,13.78-59.78,12.71-90.73,12.06v-14.35c1.04-.02,2.08-.03,3.16-.05,14.05-.15,21.07-.23,28.05-.82,7.19-.61,6.74-1.07,15.92-2.04,1.96-.21,6.23-.63,11.87-1.87,0,0,1.12-.25,2.24-.52,14.96-3.65,27.14-10.79,27.14-10.79,6.21-3.64,17.12-10.04,25.69-21.82,3.04-4.18,6.23-9.65,6.36-9.87,3.19-5.49,5.53-10.45,7.69-15.45,5.39-12.51,9-23.92,10.82-29.83,3.31-10.75,5.66-19.66,10.37-37.47,1.12-4.23,5.78-21.93,10.91-32.9,2.42-5.18,4.47-8.96,4.47-8.96.86-1.6,2.36-4.23,5.31-9.43.73-1.29,1.71-3.02,1.9-3.34,13.08-22.24,31.79-34.93,54.1-39.73,10.75-2.31,19.12-3.03,34.63-3.54,6.31-.21,17.27-.38,26.5-.29Z"/>
  <path class="st2" d="M608.83,261.8c3.73.04,7.46.05,11.19.07,7.23.04,14.46.1,21.69.18v14.35c-1.85.02-3.7.03-5.6.05-6.21.06-12.42.14-18.63.23-3.75.05-7.51.1-11.26.13-20.37.18-40.68.47-60.51,6.76-1.05.31-2.09.62-3.17.94-21.57,7.14-35.12,25.07-45.98,47.52-3.01,6.78-5.4,13.82-7.77,20.94-.84,2.52-1.69,5.03-2.54,7.54-2.58,7.64-4.97,15.24-6.85,23.18-1.28,5.03-3.02,9.85-4.7,14.7-.67,2.01-1.34,4.03-2.01,6.04q-14.58,43.55-26.99,62.14c-.41.62-.81,1.24-1.23,1.88-7.7,11.47-18.57,17.85-29.77,23.24-.75.36-1.5.73-2.27,1.1-29.31,13.78-59.78,12.71-90.73,12.06v-14.35c1.04-.02,2.08-.03,3.16-.05,14.05-.15,21.07-.23,28.05-.82,7.19-.61,6.74-1.07,15.92-2.04,1.96-.21,6.23-.63,11.87-1.87,0,0,1.12-.25,2.24-.52,14.96-3.65,27.14-10.79,27.14-10.79,6.21-3.64,17.12-10.04,25.69-21.82,3.04-4.18,6.23-9.65,6.36-9.87,3.19-5.49,5.53-10.45,7.69-15.45,5.39-12.51,9-23.92,10.82-29.83,3.31-10.75,5.66-19.66,10.37-37.47,1.12-4.23,5.78-21.93,10.91-32.9,2.42-5.18,4.47-8.96,4.47-8.96.86-1.6,2.36-4.23,5.31-9.43.73-1.29,1.71-3.02,1.9-3.34,13.08-22.24,31.79-34.93,54.1-39.73,10.75-2.31,19.12-3.03,34.63-3.54,6.31-.21,17.27-.38,26.5-.29Z"/>
  <text class="st4" transform="translate(279.56 719.73)"><tspan x="0" y="0">jmleIRT</tspan></text>
  <text/>
</svg>